<svg width="177" height="175" viewBox="0 0 177 175" fill="none" xmlns="http://www.w3.org/2000/svg">
<path d="M30.9864 85.9175C33.2734 87.4632 34.8858 89.4521 36.4432 91.6803C36.4589 91.7784 36.4314 91.8843 36.4432 91.9824C36.5138 92.614 36.4628 93.4456 36.4432 94.1047C36.4393 94.3048 36.4471 94.5088 36.4432 94.7128C36.4275 95.2855 36.149 95.8504 36.145 96.38C36.1176 99.84 36.3608 103.147 37.0512 106.54C36.9728 106.568 36.8551 106.529 36.7492 106.54C27.6126 103.763 13.3292 109.855 9.45728 118.67C9.42197 118.753 9.49258 118.886 9.45728 118.972L7.94302 120.792C6.70729 116.022 5.52257 111.46 4.90667 106.54C3.98085 99.1535 4.44376 91.343 6.49938 84.1757C14.2393 80.3156 23.7054 81.6886 30.9864 85.9214V85.9175Z" fill="#F6EADC"/>
<path d="M156.218 79.5467C156.52 79.5389 156.826 79.5467 157.128 79.5467C161.671 79.5938 162.899 80.5549 166.83 81.669C166.92 81.6965 167.034 81.6494 167.132 81.669L167.74 82.2771C168.783 83.2264 168.776 82.5634 169.407 84.3994C172.91 94.5363 172.165 107.192 169.552 117.45L166.822 113.06C162.938 108.223 155.634 104.332 149.396 104.085C148.388 104.045 146.254 104.603 145.497 104.43C145.234 104.371 145.362 104.421 145.175 104.421L144.81 104.434C142.545 104.421 141.213 104.712 139.236 104.712C140.271 100.915 140.271 96.9999 139.758 93.1201C139.471 90.9585 138.2 88.4086 139.236 86.5178C139.326 86.4118 139.444 86.3177 139.538 86.2157C141.291 84.3052 143.606 83.1793 145.603 81.669C145.693 81.6376 145.815 81.7004 145.905 81.669C149.259 80.4686 152.629 79.6448 156.214 79.5467H156.218Z" fill="#F6EADB"/>
<path d="M167.136 77.4244C158.894 74.5881 149.349 74.949 141.766 79.4957C140.013 80.5471 138.644 82.0378 136.969 83.1833C135.486 79.9468 133.414 77.1184 131.351 74.2468C140.236 69.3118 144.846 60.1438 149.09 51.3525C156.764 58.6924 163.346 67.417 167.132 77.4244H167.136Z" fill="#D54F3C"/>
<path d="M19.4607 58.9277C23.8701 67.9112 29.9781 77.9578 39.1303 82.6222C39.5618 83.3048 38.3614 86.1176 37.8083 86.8237C37.5062 86.8982 34.9995 84.2306 34.4699 83.7991C27.593 78.2364 16.24 76.6476 7.94688 79.5466C7.40944 78.7934 10.9715 71.0182 11.6344 69.7471C12.6269 67.8484 17.2913 60.1987 18.6997 59.2258C18.9546 59.0493 19.0017 58.8061 19.4568 58.9277H19.4607Z" fill="#D54F3D"/>
<path d="M61.5264 135.708C63.8606 135.182 66.2339 137.747 65.1198 139.301C64.704 139.882 61.3146 140.023 60.5575 139.878C58.4822 139.477 59.5924 136.139 61.5225 135.704L61.5264 135.708Z" fill="#4F7C9D"/>
<path d="M70.6197 133.287C71.8711 133.001 73.3108 133.122 73.7149 134.542C72.9695 135.519 69.6115 138.685 68.4621 138.363L67.9913 137.645C68.3326 136.21 68.9877 133.664 70.6197 133.287Z" fill="#4F7C9D"/>
<path d="M36.749 106.536C34.3717 106.842 31.5903 106.348 29.0326 106.556C22.646 107.074 15.4827 110.965 11.7206 115.622C10.9047 116.63 10.5359 117.944 9.46103 118.666C13.333 109.851 27.6164 103.759 36.7529 106.536H36.749Z" fill="#F6EADC"/>
<path d="M139.24 104.716C138.549 104.481 139.491 101.962 139.538 101.225C139.773 97.5254 139.405 94.0733 138.801 90.4524C138.475 88.487 137.471 88.64 139.24 86.5255C138.204 88.4164 139.475 90.9663 139.762 93.1278C140.276 97.0076 140.276 100.923 139.24 104.72V104.716Z" fill="#F6EADB"/>
<path d="M4.90666 106.536C5.52256 111.456 6.70728 116.014 7.94301 120.789L9.45726 118.968C9.20227 119.6 9.16697 120.157 9.01397 120.8L7.65271 121.075C6.75436 117.682 5.60886 114.312 4.99688 110.844C4.76935 109.553 4.22799 107.702 4.90666 106.536Z" fill="#153549"/>
<path d="M36.4432 94.7088C37.1689 98.5258 36.3098 102.621 37.6514 106.387C37.7142 106.674 37.2474 106.47 37.0512 106.532C36.3608 103.139 36.1176 99.8321 36.145 96.3721C36.1489 95.8425 36.4314 95.2776 36.4432 94.7048V94.7088Z" fill="#F6EADC"/>
<path d="M156.218 79.5467C152.633 79.6448 149.263 80.4686 145.909 81.669C146.94 80.5902 149.279 79.9861 150.75 79.6879C152.393 79.3506 154.629 78.8641 156.218 79.5467Z" fill="#153549"/>
<path d="M157.129 79.5466C159.71 78.6835 162.911 79.6447 165.394 80.5273C165.885 80.6999 166.991 80.9157 166.83 81.6689C162.895 80.5548 161.671 79.5937 157.129 79.5466Z" fill="#153549"/>
<path d="M91.6311 170.822C90.2032 171.343 88.1633 171.175 86.6137 171.124C86.0292 171.104 85.3976 171.434 85.5663 170.516C87.5787 170.653 89.5951 170.716 91.6311 170.818V170.822Z" fill="#082238"/>
<path d="M36.4432 91.9824H37.0474L37.0552 93.9164L36.4432 94.1087C36.4629 93.4496 36.5139 92.6179 36.4432 91.9863V91.9824Z" fill="#153549"/>
<path d="M93.149 170.516L93.4511 171.12C92.9019 171.336 92.2781 170.845 91.9368 170.818C92.1487 170.363 92.7489 170.523 93.149 170.516Z" fill="#082238"/>
<path d="M145.607 81.6729C143.61 83.1871 141.296 84.313 139.542 86.2195C141.15 84.262 143.202 82.5359 145.607 81.6729Z" fill="#153549"/>
<path d="M30.9863 85.9175C32.7752 86.9571 36.1293 89.5737 36.4431 91.6803C34.8857 89.452 33.2734 87.4631 30.9863 85.9175Z" fill="#F6EADC"/>
<path d="M167.136 81.6729C168.301 81.9278 167.509 82.0691 167.744 82.2809L167.136 81.6729Z" fill="#153549"/>
<path d="M4.14944 106.234C4.34559 106.336 4.34559 106.438 4.14944 106.536V106.234Z" fill="#48BBFE"/>
<path d="M48.1922 131.478C49.2671 140.019 54.6141 144.985 63.4328 144.138C60.4789 151.501 60.9182 159.547 62.5227 167.177C43.1277 161.866 24.1838 149.995 13.5762 132.585C12.8505 131.396 10.7752 127.979 10.5006 126.849C10.1593 125.465 12.0698 121.703 12.8544 120.388C17.2324 113.068 26.3807 109.106 34.7719 109.871C35.3407 109.922 37.1609 110.134 37.3335 110.663C35.1171 119.306 39.7265 128.521 48.1922 131.471V131.478Z" fill="#D54F3C"/>
<path d="M124.38 135.041C124.384 134.703 130.044 133.883 130.978 133.605C140.146 130.886 147.011 123.617 142.931 113.61L139.844 108.361C148.372 106.705 157.882 108.435 163.648 115.328C165.151 117.124 167.811 121.24 167.363 123.597C166.916 125.955 163.531 132.071 162.103 134.409C152.633 149.928 135.486 161.183 118.24 166.353C117.605 166.546 110.402 168.64 110.422 167.934C111.352 165.333 111.697 162.638 111.944 159.904C112.858 160.073 112.532 159.441 112.552 158.857C112.623 156.711 112.517 154.969 112.25 152.929C111.481 147.045 109.979 141.223 107.252 135.943L104.063 130.796C106.589 131.6 108.833 132.863 111.41 133.605C113.435 134.189 115.632 134.707 117.707 135.041C120.01 135.413 122.304 135.398 124.682 135.343C124.733 134.997 124.38 135.064 124.38 135.041Z" fill="#D54F3C"/>
<path d="M112.25 152.929C112.517 154.969 112.627 156.707 112.552 158.857C112.532 159.441 112.862 160.073 111.944 159.904C111.964 159.704 111.909 159.477 111.944 159.296L112.246 158.994V152.929H112.25Z" fill="#F0543D"/>
<path d="M124.38 135.041C124.38 135.06 124.737 134.997 124.682 135.343C122.305 135.398 120.01 135.413 117.707 135.041H124.38Z" fill="#F0543D"/>
<path d="M111.948 159.296C111.975 159.151 112.109 159.033 112.25 158.994L111.948 159.296Z" fill="#D54F3C"/>
<path d="M12.1876 27.6971C15.1298 3.29641 41.2723 -5.14184 61.4872 5.56387C65.1041 4.05353 68.6819 2.3549 72.5263 1.46439C81.5491 -0.62261 97.2644 -0.548074 106.122 2.13522C107.613 2.58635 113.447 5.24218 114.231 5.22257C114.969 5.20688 118.166 3.19833 119.292 2.74327C133.783 -3.14898 153.464 4.44191 155.308 21.1811C156.273 29.9292 152.825 38.2694 150.809 46.5821C172.495 66.1615 182.306 95.7012 172.298 123.978C149.247 189.114 41.0604 191.692 8.49612 132.816C-5.68923 107.168 -1.60545 75.7845 16.9736 53.5767C14.5257 47.8375 12.8074 41.8157 12.1837 35.5822M81.9296 4.64982C74.3348 5.06565 66.0456 7.23896 60.8517 13.1351C59.9337 14.1786 57.2386 19.0509 56.9052 19.1961C56.7757 19.251 56.152 19.3177 56.1559 19.0509C55.9833 15.74 57.6309 12.7546 59.1883 9.97325C44.4146 1.60954 25.098 4.70866 18.4055 21.6361C12.2308 37.2651 23.6269 61.9797 34.1639 73.7916C37.3493 77.3615 41.9823 81.7944 46.0936 76.6161C52.586 68.4407 48.1688 49.7989 48.8632 39.6621C48.9926 37.7594 49.4555 35.743 50.0675 33.9424C52.2173 33.1617 50.9541 37.8457 50.9855 39.3874C51.1424 47.0607 53.9159 54.7144 53.9708 62.4151C53.9944 66.0674 52.8567 68.8762 54.2807 72.4774C57.2975 80.1036 66.3399 86.7766 74.3466 88.0358C74.5349 87.8671 72.7931 85.5958 72.5656 85.1211C70.7689 81.3629 70.6551 75.2588 73.7268 72.1087C75.5862 70.2021 78.5127 69.7275 80.5605 71.6693C84.5541 75.4589 86.5548 92.9552 88.0808 99.0201C92.4863 116.544 103.878 132.318 123.921 130.792C131.798 130.192 143.073 125.006 138.93 115.332C138.451 114.982 136.506 117.685 135.874 118.184C131.578 121.581 126.302 119.678 123.171 115.779C119.296 110.95 119.135 103.331 119.825 97.4509C116.593 96.274 113.074 96.9213 109.888 97.9609C108.837 98.3022 102.568 101.711 103.988 98.4316C105.608 94.693 116.581 92.5707 120.131 94.7127C120.728 88.0162 123.034 80.7195 121.877 74.0152C121.645 72.6697 121.183 70.8808 120.296 69.8373C116.169 64.9807 109.249 64.2 103.396 65.6908C101.085 66.2792 98.3314 68.1583 96.4955 68.5074C93.7024 69.0409 96.7073 65.9732 97.5508 65.3063C102.403 61.4461 110.795 60.8459 116.306 63.5175C121.383 65.9771 122.995 70.6376 125.439 75.298C127.22 73.2306 127.93 70.0884 128.318 67.4208C128.436 66.6205 128.569 65.8006 128.62 64.9964C128.64 64.6943 128.605 64.3883 128.62 64.0863C128.793 60.2653 128.491 56.3895 128.62 52.5646C130.041 41.4352 130.774 35.3978 125.945 24.7667C119.912 11.4875 106.664 5.23042 92.5373 4.65374C89.4577 4.52821 85.9193 4.53606 82.8358 4.65374C82.6358 4.66159 82.4318 4.6459 82.2278 4.65374C82.1258 4.65767 82.0238 4.64982 81.9257 4.65374L81.9296 4.64982ZM132.571 67.7228C133.097 67.8601 133.175 67.5032 133.481 67.2717C140.209 62.117 145.524 48.3749 147.811 40.3643C151.303 28.1404 154.229 14.21 140.26 7.72933C133.862 4.75966 125.329 4.10453 119.139 7.99217C118.103 8.64337 121.551 10.7421 122.124 11.311C130.707 19.8904 135.16 33.758 134.085 45.7387C133.854 48.3004 133.057 51.0896 132.881 53.6316C132.555 58.3039 133.308 63.082 132.575 67.7268L132.571 67.7228ZM167.136 77.4243C163.35 67.4169 156.768 58.6962 149.094 51.3524C144.846 60.1437 140.24 69.3116 131.355 74.2467C133.418 77.1183 135.49 79.9467 136.972 83.1831C138.644 82.0337 140.013 80.5469 141.77 79.4956C149.349 74.9489 158.898 74.588 167.14 77.4243H167.136ZM19.4607 58.9276C19.0057 58.806 18.9586 59.0492 18.7036 59.2258C17.2913 60.1947 12.6309 67.8444 11.6384 69.7471C10.9715 71.022 7.41339 78.7934 7.95083 79.5466C16.2439 76.6515 27.5969 78.2363 34.4738 83.799C35.0034 84.2266 37.5102 86.8942 37.8122 86.8236C38.3693 86.1214 39.5658 83.3048 39.1343 82.6222C29.9821 77.9578 23.874 67.9111 19.4647 58.9276H19.4607ZM76.5748 85.2035C78.1322 86.6824 81.4393 86.7648 81.6119 84.2345C81.6864 83.1753 79.3052 75.7688 78.5951 74.843C77.5438 73.466 76.2139 74.0035 75.496 75.3961C74.221 77.8676 74.4839 83.2224 76.5709 85.2035H76.5748ZM40.6917 99.8635C42.4295 97.443 43.6143 94.6577 45.2933 92.1902C47.8707 88.4046 51.162 85.1054 54.3278 81.8219L51.1385 78.0323C50.5618 77.8911 48.9965 80.2174 48.412 80.7548C46.5094 82.4888 44.6892 82.4849 43.4613 84.9014C41.3115 89.1342 40.013 95.1756 40.6917 99.8674V99.8635ZM135.293 102.594C136.376 95.4384 134.819 86.6942 130.692 80.6685C130.241 80.0095 129.052 78.099 128.212 78.354C127.844 78.4678 125.878 81.308 125.674 81.9043C123.34 88.7341 130.731 98.0354 135.293 102.594ZM145.909 81.6728C145.819 81.7042 145.697 81.6414 145.607 81.6728C143.206 82.5398 141.15 84.262 139.542 86.2195C139.448 86.3254 139.33 86.4156 139.24 86.5216C137.471 88.64 138.475 88.483 138.8 90.4484C139.401 94.0693 139.773 97.5215 139.538 101.221C139.491 101.958 138.549 104.477 139.24 104.712C141.217 104.712 142.545 104.42 144.799 104.42H145.175C145.362 104.42 145.238 104.367 145.501 104.43C146.258 104.602 148.396 104.045 149.4 104.085C155.638 104.332 162.942 108.223 166.826 113.06L169.556 117.45C172.169 107.192 172.914 94.5361 169.411 84.3993C168.776 82.5633 168.787 83.2263 167.744 82.2769C167.512 82.0651 168.301 81.9239 167.136 81.6689C167.038 81.6493 166.924 81.6963 166.834 81.6689C166.995 80.9157 165.888 80.7038 165.398 80.5273C162.911 79.6447 159.71 78.6796 157.132 79.5466C156.83 79.5466 156.524 79.5387 156.222 79.5466C154.633 78.8601 152.397 79.3504 150.754 79.6878C149.283 79.9899 146.945 80.5901 145.913 81.6689L145.909 81.6728ZM30.9863 85.9174C23.7054 81.6846 14.2393 80.3116 6.49934 84.1717C4.44372 91.3429 3.98474 99.1495 4.90663 106.536C4.22796 107.702 4.76933 109.557 4.99686 110.844C5.60883 114.316 6.75433 117.681 7.65269 121.075L9.01395 120.8C9.16694 120.153 9.20225 119.6 9.45724 118.968C9.49255 118.882 9.42193 118.749 9.45724 118.666C10.5321 117.944 10.9009 116.63 11.7169 115.622C15.479 110.965 22.6422 107.074 29.0288 106.556C31.5905 106.348 34.3679 106.842 36.7452 106.536C36.8511 106.525 36.9688 106.564 37.0473 106.536C37.2434 106.474 37.7142 106.678 37.6475 106.391C36.3058 102.621 37.1689 98.5258 36.4392 94.7127C36.4431 94.5126 36.4353 94.3086 36.4392 94.1046L37.0512 93.9124L37.0434 91.9784H36.4392C36.4274 91.8803 36.4549 91.7744 36.4392 91.6763C36.1254 89.5736 32.7673 86.9531 30.9824 85.9135L30.9863 85.9174ZM83.4047 95.054C73.7738 94.4694 65.0767 90.9819 57.5643 85.0426C50.8482 90.9663 44.7205 99.5496 42.2922 108.29C40.6328 114.272 40.9584 121.557 46.4702 125.469C48.7141 127.061 51.4798 126.74 52.3781 129.874C53.2765 133.008 53.1431 136.461 56.3128 138.677L58.1527 135.068C60.4908 131.816 63.7821 132.11 66.4615 134.738C67.5128 131.09 71.5378 129.344 74.8134 131.714C75.9158 131.741 75.649 128.505 75.5392 127.638C74.6879 120.945 67.3991 112.994 61.5186 110.122C60.4515 109.6 58.9687 109.608 58.3331 108.466C57.8938 106.274 63.0995 107.505 64.1744 107.768C65.0021 107.972 65.724 108.517 66.587 108.619C67.1715 108.482 69.0153 101.896 70.9886 103.229C72.1223 103.994 69.6822 108.953 70.1608 110.565C70.3177 111.095 73.8994 114.233 74.6487 115.186C77.4575 118.756 79.1483 123.232 79.874 127.697C86.4018 129.305 93.2473 128.776 99.8222 127.76C90.2266 119.172 85.2563 107.678 83.4086 95.054H83.4047ZM123.776 95.3168C123.438 99.9969 123.077 109.863 126.38 113.48C128.365 115.653 132.257 116.32 134.081 113.66C136.914 109.534 130.621 104.438 128.33 101.523C126.741 99.5026 125.572 97.1096 123.776 95.3168ZM4.1495 106.234V106.536C4.34565 106.434 4.34565 106.332 4.1495 106.234ZM111.948 159.904C111.705 162.638 111.36 165.337 110.426 167.934C110.406 168.64 117.609 166.542 118.244 166.353C135.49 161.183 152.637 149.928 162.107 134.409C163.531 132.071 166.901 126.057 167.367 123.597C167.834 121.138 165.155 117.124 163.652 115.328C157.886 108.431 148.372 106.705 139.848 108.361L142.935 113.609C147.015 123.617 140.15 130.886 130.982 133.605C130.044 133.883 124.388 134.703 124.384 135.04H117.711C115.636 134.703 113.439 134.189 111.414 133.605C108.837 132.863 106.593 131.6 104.067 130.796L107.256 135.943C109.983 141.223 111.485 147.045 112.254 152.929V158.994C112.113 159.037 111.979 159.155 111.952 159.296C111.917 159.473 111.971 159.704 111.952 159.904H111.948ZM48.1923 131.478C39.7266 128.528 35.1172 119.309 37.3336 110.671C37.161 110.138 35.3408 109.93 34.772 109.879C26.3769 109.11 17.2286 113.076 12.8545 120.396C12.0699 121.71 10.1594 125.472 10.5007 126.857C10.7793 127.987 12.8545 131.404 13.5763 132.593C24.184 150.003 43.1278 161.869 62.5228 167.185C60.9223 159.555 60.4829 151.505 63.433 144.146C54.6142 144.993 49.2672 140.023 48.1923 131.486V131.478ZM84.6561 170.516C84.9581 170.539 85.2641 170.496 85.5662 170.516C85.3975 171.43 86.0291 171.104 86.6136 171.124C88.1632 171.175 90.2031 171.339 91.6311 170.822C91.7331 170.826 91.8351 170.814 91.9331 170.822C92.2783 170.845 92.9021 171.336 93.4474 171.124L93.1453 170.52C93.6514 170.508 94.1574 170.527 94.6596 170.52C94.7616 170.52 94.8636 170.523 94.9616 170.52C95.5658 170.496 96.1777 170.555 96.7819 170.52C98.2961 170.433 100.116 170.155 101.635 169.911C101.835 169.904 102.039 169.915 102.243 169.911C102.768 169.896 103.518 169.723 104.063 169.609C104.247 169.57 104.498 169.653 104.671 169.609C104.969 169.531 105.146 169.539 105.436 169.327C106.593 168.503 107.507 162.874 107.699 161.265C108.198 157.076 108.135 152.788 107.099 148.684C107.076 148.488 107.107 148.276 107.099 148.076C107.052 146.613 105.879 143.749 105.279 142.314C105.173 142.063 105.051 141.882 104.977 141.706C104.408 139.54 103.337 137.398 101.944 135.641C101.227 134.374 100.575 132.938 99.3082 132.051C92.8158 133.244 85.9938 133.389 79.517 132C78.6069 135.919 75.7824 139.352 72.3223 141.341C70.8316 142.196 69.1251 142.518 67.8463 143.534C67.2892 145.283 66.5674 147.005 66.128 148.79C64.8766 153.871 64.7236 157.535 65.6494 162.689C65.8652 163.894 66.5242 167.97 67.5991 168.319C73.256 169.449 78.9168 170.076 84.6639 170.508L84.6561 170.516ZM70.6198 133.287C68.9879 133.664 68.3327 136.21 67.9914 137.645L68.4622 138.363C69.6116 138.685 72.9736 135.519 73.715 134.542C73.3109 133.122 71.8712 133.001 70.6198 133.287ZM61.5264 135.707C59.5963 136.143 58.4822 139.481 60.5614 139.881C61.3146 140.027 64.7079 139.881 65.1238 139.305C66.2379 137.747 63.8606 135.186 61.5303 135.711L61.5264 135.707Z" fill="#153549"/>
<path d="M83.4046 95.0541C85.2523 107.674 90.2266 119.172 99.8181 127.76C93.2433 128.776 86.3978 129.305 79.87 127.697C79.1482 123.233 77.4535 118.756 74.6447 115.187C73.8954 114.233 70.3176 111.095 70.1568 110.565C69.6782 108.957 72.1183 103.998 70.9845 103.229C69.0152 101.896 67.1715 108.482 66.583 108.62C65.7239 108.514 64.9981 107.968 64.1704 107.768C63.0955 107.505 57.8898 106.274 58.3291 108.467C58.9647 109.608 60.4475 109.6 61.5146 110.122C67.3951 112.994 74.6839 120.945 75.5352 127.638C75.645 128.505 75.9157 131.741 74.8094 131.714C71.5338 129.344 67.5088 131.09 66.4575 134.739C63.7781 132.11 60.4868 131.816 58.1487 135.068L56.3088 138.677C53.1391 136.457 53.2842 133.056 52.3741 129.874C51.464 126.693 48.7101 127.061 46.4662 125.469C40.9544 121.557 40.6288 114.273 42.2883 108.29C44.7166 99.5458 50.8442 90.9624 57.5603 85.0427C65.0727 90.9821 73.7698 94.4695 83.4007 95.0541H83.4046Z" fill="#48BBFE"/>
<path d="M76.5749 85.2036C74.4879 83.2225 74.225 77.8677 75.5 75.3962C76.2179 74.0036 77.5438 73.4701 78.5991 74.8431C79.3092 75.7689 81.6865 83.1754 81.6159 84.2346C81.4432 86.7649 78.1362 86.6825 76.5788 85.2036H76.5749Z" fill="#F3E9DB"/>
<path d="M123.776 95.3169C125.572 97.1097 126.741 99.5027 128.33 101.523C130.621 104.438 136.913 109.534 134.081 113.661C132.257 116.32 128.365 115.653 126.38 113.48C123.077 109.863 123.438 99.993 123.776 95.3169Z" fill="#48BBFE"/>
<path d="M100.124 88.644C99.8575 86.9414 100.948 86.0077 102.145 85.0584C106.338 81.7317 115.588 80.0762 119.19 84.9015L118.743 85.5958C114.733 84.7367 110.575 84.6504 106.632 85.9057C105.612 86.2313 100.446 88.9656 100.124 88.644Z" fill="#143448"/>
<path d="M81.9297 4.64997L82.0827 4.94811L82.2356 4.64997C82.4357 4.64212 82.6397 4.65782 82.8437 4.64997C83.1575 5.15211 83.9931 4.95204 84.507 4.95988C86.6293 4.98734 88.7634 4.98342 90.8818 4.95988C91.3957 4.95596 92.2313 5.15211 92.5451 4.64997C106.672 5.22664 119.919 11.4798 125.953 24.7629C130.782 35.394 130.048 41.4314 128.628 52.5608C128.216 55.7855 128.279 59.1121 128.318 62.4192C128.326 62.9331 128.122 63.7687 128.628 64.0825C128.613 64.3846 128.648 64.6906 128.628 64.9926H128.024C128.11 65.7498 127.722 66.8953 128.326 67.417C127.938 70.0846 127.228 73.2269 125.447 75.2943C123.003 70.6299 121.387 65.9734 116.314 63.5137C110.802 60.8422 102.411 61.4424 97.5586 65.3025C96.7152 65.9734 93.7102 69.0411 96.5034 68.5037C98.3393 68.1506 101.093 66.2754 103.404 65.687C109.257 64.1963 116.177 64.9769 120.304 69.8335C121.19 70.877 121.653 72.6698 121.885 74.0115C123.042 80.7158 120.735 88.0085 120.139 94.7089C116.589 92.567 105.616 94.6893 103.996 98.4278C102.576 101.707 108.845 98.2984 109.896 97.9571C113.082 96.9214 116.601 96.2702 119.833 97.4471C119.147 103.328 119.303 110.946 123.179 115.775C126.31 119.674 131.586 121.577 135.882 118.18C136.513 117.682 138.455 114.979 138.938 115.328C143.08 125.002 131.806 130.188 123.929 130.788C103.886 132.314 92.4941 116.54 88.0887 99.0163C86.5626 92.9514 84.5619 75.4551 80.5684 71.6655C78.5206 69.7237 75.5941 70.1984 73.7346 72.1049C70.663 75.255 70.7767 81.3591 72.5734 85.1173C72.801 85.592 74.5428 87.8673 74.3545 88.0321C66.3477 86.7689 57.3054 80.0959 54.2886 72.4737C52.8646 68.8724 54.0023 66.0636 53.9787 62.4113C53.9277 54.7106 51.1542 47.0569 50.9934 39.3837C50.962 37.842 52.2252 33.158 50.0754 33.9386C49.4634 35.7393 49.0044 37.7557 48.871 39.6583C48.1767 49.7952 52.5939 68.437 46.1015 76.6124C41.9902 81.7867 37.3572 77.3577 34.1718 73.7879C23.6348 61.9798 12.2386 37.2614 18.4133 21.6324C25.098 4.70881 44.4146 1.60969 59.1845 9.97732C57.627 12.7587 55.9794 15.7401 56.152 19.055C56.152 19.3218 56.7718 19.2551 56.9013 19.2002C57.2348 19.0589 59.9298 14.1827 60.8478 13.1392C66.0418 7.24303 74.3309 5.0658 81.9257 4.65389L81.9297 4.64997ZM115.808 25.6416C113.29 26.1555 112.246 29.4273 115.126 29.4586C116.322 29.4704 117.111 29.0232 118.637 29.3449C121.261 29.8941 122.375 32.2518 124.513 33.1658C126.93 32.393 124.745 29.1566 123.63 27.9836C121.704 25.9555 118.539 25.0806 115.804 25.6377L115.808 25.6416ZM82.7495 26.8734C81.8787 25.8182 78.5245 25.7515 77.2339 25.8809C72.1851 26.387 68.9761 31.475 68.8937 36.1865C70.714 36.4415 71.1808 34.4251 72.2204 33.2992C75.6059 29.6195 76.8887 30.0628 81.4471 29.4861C83.0242 29.286 83.8794 28.2386 82.7495 26.8734ZM118.542 43.236C114.835 44.205 115.094 53.263 119.963 52.5491C124.199 51.9253 123.713 41.8865 118.542 43.236ZM76.8769 44.4757C72.9736 48.4182 77.838 56.6015 81.455 52.5412C85.0719 48.481 81.0588 40.2546 76.8769 44.4757ZM114.07 53.165C114.549 51.333 112.156 50.2306 110.732 49.6814C106.146 47.92 99.6103 48.4849 95.3736 50.9917C94.0476 51.7762 91.7998 53.3062 91.9371 54.9852C92.451 55.4913 97.4684 52.9727 98.5394 52.6471C101.568 51.7252 105.271 51.3173 108.425 51.6821C110.398 51.9135 112.117 53.2003 114.066 53.165H114.07ZM100.124 88.644C100.442 88.9657 105.612 86.2314 106.632 85.9058C110.571 84.6505 114.729 84.7368 118.743 85.5959L119.19 84.9015C115.592 80.0803 106.342 81.7318 102.145 85.0585C100.948 86.0078 99.8575 86.9415 100.124 88.644Z" fill="#48BBFE"/>
<path d="M132.571 67.723C133.305 63.0782 132.551 58.3001 132.877 53.6278C133.053 51.0858 133.854 48.2966 134.081 45.7349C135.16 33.7542 130.704 19.8866 122.12 11.3072C121.551 10.7383 118.099 8.63957 119.135 7.98836C125.325 4.10073 133.854 4.75979 140.256 7.72553C154.226 14.2062 151.299 28.1327 147.808 40.3605C145.521 48.375 140.209 62.1171 133.477 67.2679C133.171 67.4994 133.093 67.8563 132.567 67.719L132.571 67.723Z" fill="#48BBFE"/>
<path d="M128.625 64.0825C128.122 63.7686 128.323 62.933 128.315 62.4191C128.275 59.1121 128.213 55.7854 128.625 52.5608C128.495 56.3857 128.797 60.2615 128.625 64.0825Z" fill="#48BBFE"/>
<path d="M92.5412 4.64983C92.2273 5.15196 91.3917 4.95189 90.8778 4.95974C88.7555 4.98328 86.6215 4.9872 84.5031 4.95974C83.9892 4.95189 83.1536 5.15589 82.8397 4.64983C85.9232 4.53214 89.4617 4.52429 92.5412 4.64983Z" fill="#48BBFE"/>
<path d="M128.624 64.9926C128.573 65.7968 128.436 66.6206 128.322 67.4169C127.718 66.8952 128.107 65.7497 128.02 64.9886H128.624V64.9926Z" fill="#48BBFE"/>
<path d="M81.9298 4.64994C82.0318 4.64601 82.1337 4.65386 82.2318 4.64994L82.0788 4.94808L81.9258 4.64994H81.9298Z" fill="#48BBFE"/>
<path d="M114.07 53.1649C112.121 53.2002 110.402 51.9135 108.429 51.682C105.271 51.3133 101.572 51.7252 98.5433 52.6471C97.4684 52.9727 92.451 55.4912 91.941 54.9852C91.8037 53.3061 94.0516 51.7762 95.3775 50.9916C99.6182 48.4888 106.15 47.9199 110.736 49.6813C112.164 50.2306 114.557 51.3329 114.074 53.1649H114.07Z" fill="#143448"/>
<path d="M76.877 44.4756C81.0588 40.2545 85.1426 48.4024 81.455 52.5411C77.7675 56.6798 72.9736 48.4181 76.877 44.4756Z" fill="#143449"/>
<path d="M82.7495 26.8733C83.8754 28.2425 83.0242 29.2899 81.4471 29.486C76.8887 30.0588 75.6059 29.6155 72.2204 33.2991C71.1808 34.4289 70.71 36.4414 68.8937 36.1864C68.9761 31.471 72.1851 26.3869 77.2339 25.8808C78.5245 25.7514 81.8787 25.8181 82.7495 26.8733Z" fill="#133448"/>
<path d="M118.542 43.236C123.713 41.8865 124.199 51.9253 119.962 52.549C115.094 53.263 114.839 44.205 118.542 43.236Z" fill="#133348"/>
<path d="M115.808 25.6416C118.542 25.0845 121.708 25.9554 123.634 27.9875C124.745 29.1565 126.93 32.3969 124.517 33.1697C122.375 32.2517 121.265 29.898 118.641 29.3488C117.115 29.0271 116.326 29.4743 115.13 29.4625C112.25 29.4311 113.294 26.1594 115.812 25.6455L115.808 25.6416Z" fill="#133347"/>
<path d="M101.941 135.645C103.015 137.539 104.102 139.717 104.973 141.71C105.051 141.886 105.173 142.067 105.275 142.318L106.401 147.119L107.091 148.08C107.099 148.28 107.068 148.488 107.091 148.688C107.57 152.957 107.648 158.268 107.009 162.705C106.821 164.004 106.115 167.793 105.589 168.809C105.369 169.233 104.432 168.672 104.667 169.613C104.498 169.657 104.247 169.574 104.059 169.613C103.725 169.076 102.811 169.355 102.239 169.311V169.915C102.039 169.919 101.835 169.908 101.635 169.915C100.536 169.959 99.4338 169.715 97.845 169.931C97.2801 170.006 96.6132 169.543 96.7819 170.524C96.1777 170.559 95.5657 170.5 94.9616 170.524C94.9302 170.378 94.8008 170.241 94.6595 170.221C92.4823 169.904 88.6888 170.19 86.3154 170.218C85.8015 170.221 84.966 170.025 84.6521 170.527C78.905 170.092 73.2442 169.464 67.5873 168.338C66.5085 167.985 65.8534 163.913 65.6376 162.709C64.7118 157.554 64.8648 153.89 66.1162 148.81C66.5556 147.025 67.2774 145.303 67.8345 143.553C69.1134 142.533 70.8198 142.216 72.3106 141.36C75.7706 139.371 78.599 135.939 79.5052 132.02C85.982 133.405 92.804 133.263 99.2965 132.071C100.564 132.957 101.215 134.393 101.933 135.66L101.941 135.645Z" fill="#F7EADB"/>
<path d="M104.671 169.606C104.436 168.664 105.373 169.225 105.593 168.801C106.118 167.785 106.825 163.996 107.013 162.697C107.652 158.26 107.574 152.949 107.095 148.681C108.131 152.784 108.194 157.072 107.696 161.262C107.503 162.87 106.589 168.499 105.432 169.323C105.138 169.531 104.965 169.527 104.667 169.606H104.671Z" fill="#EFEFE9"/>
<path d="M94.6634 170.214V170.516C94.1573 170.524 93.6513 170.504 93.1491 170.516C92.749 170.527 92.1449 170.363 91.937 170.818C91.835 170.81 91.733 170.822 91.6349 170.818C89.5989 170.712 87.5825 170.653 85.57 170.516C85.268 170.496 84.962 170.539 84.6599 170.516C84.9737 170.014 85.8093 170.214 86.3232 170.206C88.6966 170.182 92.4862 169.896 94.6673 170.21L94.6634 170.214Z" fill="#FEFCF2"/>
<path d="M101.638 169.912C100.124 170.155 98.3039 170.429 96.7857 170.52C96.617 169.539 97.2839 170.002 97.8488 169.927C99.4376 169.715 100.54 169.955 101.638 169.912Z" fill="#EFEFE9"/>
<path d="M107.095 148.077L106.405 147.115L105.279 142.314C105.879 143.75 107.052 146.609 107.099 148.077H107.095Z" fill="#EFEFE9"/>
<path d="M104.063 169.606C103.518 169.719 102.768 169.896 102.243 169.908V169.303C102.811 169.347 103.729 169.068 104.063 169.606Z" fill="#EFEFE9"/>
<path d="M104.973 141.71C104.102 139.717 103.015 137.54 101.94 135.645C103.333 137.402 104.404 139.544 104.973 141.71Z" fill="#EFEFE9"/>
<path d="M94.9654 170.516C94.8634 170.52 94.7614 170.516 94.6633 170.516V170.214C94.8046 170.233 94.934 170.371 94.9654 170.516Z" fill="#EFEFE9"/>
</svg>
