<svg width="450" height="447" viewBox="0 0 450 447" fill="none" xmlns="http://www.w3.org/2000/svg">
<g clip-path="url(#clip0_9_42)">
<path d="M78.99 219.01C84.82 222.95 88.93 228.02 92.9 233.7C92.94 233.95 92.87 234.22 92.9 234.47C93.08 236.08 92.95 238.2 92.9 239.88C92.89 240.39 92.91 240.91 92.9 241.43C92.86 242.89 92.15 244.33 92.14 245.68C92.07 254.5 92.69 262.93 94.45 271.58C94.25 271.65 93.95 271.55 93.68 271.58C70.39 264.5 33.98 280.03 24.11 302.5C24.02 302.71 24.2 303.05 24.11 303.27L20.25 307.91C17.1 295.75 14.08 284.12 12.51 271.58C10.15 252.75 11.33 232.84 16.57 214.57C36.3 204.73 60.43 208.23 78.99 219.02V219.01Z" fill="#F6EADC"/>
<path d="M398.22 202.77C398.99 202.75 399.77 202.77 400.54 202.77C412.12 202.89 415.25 205.34 425.27 208.18C425.5 208.25 425.79 208.13 426.04 208.18L427.59 209.73C430.25 212.15 430.23 210.46 431.84 215.14C440.77 240.98 438.87 273.24 432.21 299.39L425.25 288.2C415.35 275.87 396.73 265.95 380.83 265.32C378.26 265.22 372.82 266.64 370.89 266.2C370.22 266.05 370.32 265.14 370.38 264.61L369.14 266.21C364.1 264.38 359.97 266.92 354.93 266.92C357.57 257.24 357.57 247.26 356.26 237.37C355.53 231.86 352.29 225.36 354.93 220.54C355.16 220.27 355.46 220.03 355.7 219.77C360.17 214.9 366.07 212.03 371.16 208.18C371.39 208.1 371.7 208.26 371.93 208.18C380.48 205.12 389.07 203.02 398.21 202.77H398.22Z" fill="#F6EADB"/>
<path d="M426.05 197.36C405.04 190.13 380.71 191.05 361.38 202.64C356.91 205.32 353.42 209.12 349.15 212.04C345.37 203.79 340.09 196.58 334.83 189.26C357.48 176.68 369.23 153.31 380.05 130.9C399.61 149.61 416.39 171.85 426.04 197.36H426.05Z" fill="#D54F3C"/>
<path d="M49.6101 150.21C60.8501 173.11 76.4201 198.72 99.7501 210.61C100.85 212.35 97.7901 219.52 96.3801 221.32C95.6101 221.51 89.2201 214.71 87.8701 213.61C70.3401 199.43 41.4001 195.38 20.2601 202.77C18.8901 200.85 27.9701 181.03 29.6601 177.79C32.1901 172.95 44.0801 153.45 47.6701 150.97C48.3201 150.52 48.4401 149.9 49.6001 150.21H49.6101Z" fill="#D54F3D"/>
<path d="M344.88 261.52C333.25 249.89 314.41 226.18 320.36 208.78C320.88 207.27 325.89 200.02 326.83 199.73C328.97 199.07 332 203.95 333.15 205.63C343.67 221 347.65 243.28 344.88 261.52Z" fill="#F4E9DB"/>
<path d="M103.73 254.56C102 242.6 105.32 227.21 110.79 216.41C113.91 210.25 118.56 210.26 123.41 205.84C124.9 204.48 128.9 198.54 130.36 198.9L138.49 208.56C130.42 216.93 122.03 225.34 115.46 234.99C111.17 241.29 108.16 248.38 103.73 254.55V254.56Z" fill="#F3E9DB"/>
<path d="M156.84 345.93C162.79 344.59 168.84 351.13 166 355.09C164.94 356.57 156.3 356.93 154.37 356.56C149.08 355.54 151.91 347.03 156.83 345.92L156.84 345.93Z" fill="#4F7C9D"/>
<path d="M180.02 339.76C183.21 339.03 186.88 339.34 187.91 342.96C186.01 345.45 177.45 353.52 174.52 352.7L173.32 350.87C174.19 347.21 175.86 340.72 180.02 339.76Z" fill="#4F7C9D"/>
<path d="M93.6799 271.57C87.6199 272.35 80.5299 271.09 74.0099 271.62C57.7299 272.94 39.4699 282.86 29.8799 294.73C27.7999 297.3 26.8599 300.65 24.1199 302.49C33.9899 280.02 70.3999 264.49 93.6899 271.57H93.6799Z" fill="#203348"/>
<path d="M354.94 266.93C353.18 266.33 355.58 259.91 355.7 258.03C356.3 248.6 355.36 239.8 353.82 230.57C352.99 225.56 350.43 225.95 354.94 220.56C352.3 225.38 355.54 231.88 356.27 237.39C357.58 247.28 357.58 257.26 354.94 266.94V266.93Z" fill="#203348"/>
<path d="M12.5099 271.57C14.0799 284.11 17.0999 295.73 20.2499 307.9L24.1099 303.26C23.4599 304.87 23.3699 306.29 22.9799 307.93L19.5099 308.63C17.2199 299.98 14.2999 291.39 12.7399 282.55C12.1599 279.26 10.7799 274.54 12.5099 271.57Z" fill="#203348"/>
<path d="M92.9 241.42C94.75 251.15 92.56 261.59 95.98 271.19C96.14 271.92 94.95 271.4 94.45 271.56C92.69 262.91 92.07 254.48 92.14 245.66C92.15 244.31 92.87 242.87 92.9 241.41V241.42Z" fill="#203348"/>
<path d="M398.22 202.77C389.08 203.02 380.49 205.12 371.94 208.18C374.57 205.43 380.53 203.89 384.28 203.13C388.47 202.27 394.17 201.03 398.22 202.77Z" fill="#203348"/>
<path d="M400.54 202.77C407.12 200.57 415.28 203.02 421.61 205.27C422.86 205.71 425.68 206.26 425.27 208.18C415.24 205.34 412.12 202.89 400.54 202.77Z" fill="#203348"/>
<path d="M233.58 435.44C229.94 436.77 224.74 436.34 220.79 436.21C219.3 436.16 217.69 437 218.12 434.66C223.25 435.01 228.39 435.17 233.58 435.43V435.44Z" fill="#082238"/>
<path d="M92.8999 234.47H94.4399L94.4599 239.4L92.8999 239.89C92.9499 238.21 93.0799 236.09 92.8999 234.48V234.47Z" fill="#203348"/>
<path d="M237.45 434.66L238.22 436.2C236.82 436.75 235.23 435.5 234.36 435.43C234.9 434.27 236.43 434.68 237.45 434.66Z" fill="#082238"/>
<path d="M371.17 208.19C366.08 212.05 360.18 214.92 355.71 219.78C359.81 214.79 365.04 210.39 371.17 208.19Z" fill="#203348"/>
<path d="M78.99 219.01C83.55 221.66 92.1 228.33 92.9 233.7C88.93 228.02 84.82 222.95 78.99 219.01Z" fill="#203348"/>
<path d="M426.05 208.19C429.02 208.84 427 209.2 427.6 209.74L426.05 208.19Z" fill="#203348"/>
<path d="M10.5801 270.8C11.0801 271.06 11.0801 271.32 10.5801 271.57V270.8Z" fill="#203348"/>
<path d="M122.85 335.15C125.59 356.92 139.22 369.58 161.7 367.42C154.17 386.19 155.29 406.7 159.38 426.15C109.94 412.61 61.65 382.35 34.61 337.97C32.76 334.94 27.47 326.23 26.77 323.35C25.9 319.82 30.77 310.23 32.77 306.88C43.93 288.22 67.25 278.12 88.64 280.07C90.09 280.2 94.73 280.74 95.17 282.09C89.52 304.12 101.27 327.61 122.85 335.13V335.15Z" fill="#D54F3C"/>
<path d="M317.06 344.23C317.07 343.37 331.5 341.28 333.88 340.57C357.25 333.64 374.75 315.11 364.35 289.6L356.48 276.22C378.22 272 402.46 276.41 417.16 293.98C420.99 298.56 427.77 309.05 426.63 315.06C425.49 321.07 416.86 336.66 413.22 342.62C389.08 382.18 345.37 410.87 301.41 424.05C299.79 424.54 281.43 429.88 281.48 428.08C283.85 421.45 284.73 414.58 285.36 407.61C287.69 408.04 286.86 406.43 286.91 404.94C287.09 399.47 286.82 395.03 286.14 389.83C284.18 374.83 280.35 359.99 273.4 346.53L265.27 333.41C271.71 335.46 277.43 338.68 284 340.57C289.16 342.06 294.76 343.38 300.05 344.23C305.92 345.18 311.77 345.14 317.83 345C317.96 344.12 317.06 344.29 317.06 344.23Z" fill="#D54F3C"/>
<path d="M286.14 389.83C286.82 395.03 287.1 399.46 286.91 404.94C286.86 406.43 287.7 408.04 285.36 407.61C285.41 407.1 285.27 406.52 285.36 406.06L286.13 405.29V389.83H286.14Z" fill="#F0543D"/>
<path d="M317.06 344.23C317.06 344.28 317.97 344.12 317.83 345C311.77 345.14 305.92 345.18 300.05 344.23H317.06Z" fill="#F0543D"/>
<path d="M285.37 406.06C285.44 405.69 285.78 405.39 286.14 405.29L285.37 406.06Z" fill="#D54F3C"/>
<path d="M31.07 70.6C38.57 8.39997 105.21 -13.11 156.74 14.18C165.96 10.33 175.08 5.99997 184.88 3.72997C207.88 -1.59003 247.94 -1.40003 270.52 5.43997C274.32 6.58997 289.19 13.36 291.19 13.31C293.07 13.27 301.22 8.14997 304.09 6.98997C341.03 -8.03003 391.2 11.32 395.9 53.99C398.36 76.29 389.57 97.55 384.43 118.74C439.71 168.65 464.72 243.95 439.21 316.03C380.45 482.07 104.67 488.64 21.66 338.56C-14.5 273.18 -4.09003 193.18 43.27 136.57C37.03 121.94 32.65 106.59 31.06 90.7M208.85 11.85C189.49 12.91 168.36 18.45 155.12 33.48C152.78 36.14 145.91 48.56 145.06 48.93C144.73 49.07 143.14 49.24 143.15 48.56C142.71 40.12 146.91 32.51 150.88 25.42C113.22 4.09997 63.98 12 46.92 55.15C31.18 94.99 60.23 157.99 87.09 188.1C95.21 197.2 107.02 208.5 117.5 195.3C134.05 174.46 122.79 126.94 124.56 101.1C124.89 96.25 126.07 91.11 127.63 86.52C133.11 84.53 129.89 96.47 129.97 100.4C130.37 119.96 137.44 139.47 137.58 159.1C137.64 168.41 134.74 175.57 138.37 184.75C146.06 204.19 169.11 221.2 189.52 224.41C190 223.98 185.56 218.19 184.98 216.98C180.4 207.4 180.11 191.84 187.94 183.81C192.68 178.95 200.14 177.74 205.36 182.69C215.54 192.35 220.64 236.95 224.53 252.41C235.76 297.08 264.8 337.29 315.89 333.4C335.97 331.87 364.71 318.65 354.15 293.99C352.93 293.1 347.97 299.99 346.36 301.26C335.41 309.92 321.96 305.07 313.98 295.13C304.1 282.82 303.69 263.4 305.45 248.41C297.21 245.41 288.24 247.06 280.12 249.71C277.44 250.58 261.46 259.27 265.08 250.91C269.21 241.38 297.18 235.97 306.23 241.43C307.75 224.36 313.63 205.76 310.68 188.67C310.09 185.24 308.91 180.68 306.65 178.02C296.13 165.64 278.49 163.65 263.57 167.45C257.68 168.95 250.66 173.74 245.98 174.63C238.86 175.99 246.52 168.17 248.67 166.47C261.04 156.63 282.43 155.1 296.48 161.91C309.42 168.18 313.53 180.06 319.76 191.94C324.3 186.67 326.11 178.66 327.1 171.86C327.4 169.82 327.74 167.73 327.87 165.68C327.92 164.91 327.83 164.13 327.87 163.36C328.31 153.62 327.54 143.74 327.87 133.99C331.49 105.62 333.36 90.23 321.05 63.13C305.67 29.28 271.9 13.33 235.89 11.86C228.04 11.54 219.02 11.56 211.16 11.86C210.65 11.88 210.13 11.84 209.61 11.86C209.35 11.87 209.09 11.85 208.84 11.86L208.85 11.85ZM337.94 172.63C339.28 172.98 339.48 172.07 340.26 171.48C357.41 158.34 370.96 123.31 376.79 102.89C385.69 71.73 393.15 36.22 357.54 19.7C341.23 12.13 319.48 10.46 303.7 20.37C301.06 22.03 309.85 27.38 311.31 28.83C333.19 50.7 344.54 86.05 341.8 116.59C341.21 123.12 339.18 130.23 338.73 136.71C337.9 148.62 339.82 160.8 337.95 172.64L337.94 172.63ZM426.05 197.36C416.4 171.85 399.62 149.62 380.06 130.9C369.23 153.31 357.49 176.68 334.84 189.26C340.1 196.58 345.38 203.79 349.16 212.04C353.42 209.11 356.91 205.32 361.39 202.64C380.71 191.05 405.05 190.13 426.06 197.36H426.05ZM49.61 150.21C48.45 149.9 48.33 150.52 47.68 150.97C44.08 153.44 32.2 172.94 29.67 177.79C27.97 181.04 18.9 200.85 20.27 202.77C41.41 195.39 70.35 199.43 87.88 213.61C89.23 214.7 95.62 221.5 96.39 221.32C97.81 219.53 100.86 212.35 99.76 210.61C76.43 198.72 60.86 173.11 49.62 150.21H49.61ZM195.2 217.19C199.17 220.96 207.6 221.17 208.04 214.72C208.23 212.02 202.16 193.14 200.35 190.78C197.67 187.27 194.28 188.64 192.45 192.19C189.2 198.49 189.87 212.14 195.19 217.19H195.2ZM103.73 254.56C108.16 248.39 111.18 241.29 115.46 235C122.03 225.35 130.42 216.94 138.49 208.57L130.36 198.91C128.89 198.55 124.9 204.48 123.41 205.85C118.56 210.27 113.92 210.26 110.79 216.42C105.31 227.21 102 242.61 103.73 254.57V254.56ZM344.88 261.52C347.64 243.28 343.67 220.99 333.15 205.63C332 203.95 328.97 199.08 326.83 199.73C325.89 200.02 320.88 207.26 320.36 208.78C314.41 226.19 333.25 249.9 344.88 261.52ZM371.94 208.19C371.71 208.27 371.4 208.11 371.17 208.19C365.05 210.4 359.81 214.79 355.71 219.78C355.47 220.05 355.17 220.28 354.94 220.55C350.43 225.95 352.99 225.55 353.82 230.56C355.35 239.79 356.3 248.59 355.7 258.02C355.58 259.9 353.18 266.32 354.94 266.92C359.98 266.92 364.11 264.38 369.15 266.21L370.39 264.61C370.34 265.14 370.23 266.04 370.9 266.2C372.83 266.64 378.28 265.22 380.84 265.32C396.74 265.95 415.36 275.87 425.26 288.2L432.22 299.39C438.88 273.24 440.78 240.98 431.85 215.14C430.23 210.46 430.26 212.15 427.6 209.73C427.01 209.19 429.02 208.83 426.05 208.18C425.8 208.13 425.51 208.25 425.28 208.18C425.69 206.26 422.87 205.72 421.62 205.27C415.28 203.02 407.12 200.56 400.55 202.77C399.78 202.77 399 202.75 398.23 202.77C394.18 201.02 388.48 202.27 384.29 203.13C380.54 203.9 374.58 205.43 371.95 208.18L371.94 208.19ZM78.99 219.01C60.43 208.22 36.3 204.72 16.57 214.56C11.33 232.84 10.16 252.74 12.51 271.57C10.78 274.54 12.16 279.27 12.74 282.55C14.3 291.4 17.22 299.98 19.51 308.63L22.98 307.93C23.37 306.28 23.46 304.87 24.11 303.26C24.2 303.04 24.02 302.7 24.11 302.49C26.85 300.65 27.79 297.3 29.87 294.73C39.46 282.86 57.72 272.94 74 271.62C80.53 271.09 87.61 272.35 93.67 271.57C93.94 271.54 94.24 271.64 94.44 271.57C94.94 271.41 96.14 271.93 95.97 271.2C92.55 261.59 94.75 251.15 92.89 241.43C92.9 240.92 92.88 240.4 92.89 239.88L94.45 239.39L94.43 234.46H92.89C92.86 234.21 92.93 233.94 92.89 233.69C92.09 228.33 83.53 221.65 78.98 219L78.99 219.01ZM212.61 242.3C188.06 240.81 165.89 231.92 146.74 216.78C129.62 231.88 114 253.76 107.81 276.04C103.58 291.29 104.41 309.86 118.46 319.83C124.18 323.89 131.23 323.07 133.52 331.06C135.81 339.05 135.47 347.85 143.55 353.5L148.24 344.3C154.2 336.01 162.59 336.76 169.42 343.46C172.1 334.16 182.36 329.71 190.71 335.75C193.52 335.82 192.84 327.57 192.56 325.36C190.39 308.3 171.81 288.03 156.82 280.71C154.1 279.38 150.32 279.4 148.7 276.49C147.58 270.9 160.85 274.04 163.59 274.71C165.7 275.23 167.54 276.62 169.74 276.88C171.23 276.53 175.93 259.74 180.96 263.14C183.85 265.09 177.63 277.73 178.85 281.84C179.25 283.19 188.38 291.19 190.29 293.62C197.45 302.72 201.76 314.13 203.61 325.51C220.25 329.61 237.7 328.26 254.46 325.67C230 303.78 217.33 274.48 212.62 242.3H212.61ZM315.52 242.97C314.66 254.9 313.74 280.05 322.16 289.27C327.22 294.81 337.14 296.51 341.79 289.73C349.01 279.21 332.97 266.22 327.13 258.79C323.08 253.64 320.1 247.54 315.52 242.97ZM10.58 270.8V271.57C11.08 271.31 11.08 271.05 10.58 270.8ZM285.37 407.61C284.75 414.58 283.87 421.46 281.49 428.08C281.44 429.88 299.8 424.53 301.42 424.05C345.38 410.87 389.09 382.18 413.23 342.62C416.86 336.66 425.45 321.33 426.64 315.06C427.83 308.79 421 298.56 417.17 293.98C402.47 276.4 378.22 272 356.49 276.22L364.36 289.6C374.76 315.11 357.26 333.64 333.89 340.57C331.5 341.28 317.08 343.37 317.07 344.23H300.06C294.77 343.37 289.17 342.06 284.01 340.57C277.44 338.68 271.72 335.46 265.28 333.41L273.41 346.53C280.36 359.99 284.19 374.83 286.15 389.83V405.29C285.79 405.4 285.45 405.7 285.38 406.06C285.29 406.51 285.43 407.1 285.38 407.61H285.37ZM122.85 335.15C101.27 327.63 89.52 304.13 95.17 282.11C94.73 280.75 90.09 280.22 88.64 280.09C67.24 278.13 43.92 288.24 32.77 306.9C30.77 310.25 25.9 319.84 26.77 323.37C27.48 326.25 32.77 334.96 34.61 337.99C61.65 382.37 109.94 412.62 159.38 426.17C155.3 406.72 154.18 386.2 161.7 367.44C139.22 369.6 125.59 356.93 122.85 335.17V335.15ZM215.8 434.66C216.57 434.72 217.35 434.61 218.12 434.66C217.69 436.99 219.3 436.16 220.79 436.21C224.74 436.34 229.94 436.76 233.58 435.44C233.84 435.45 234.1 435.42 234.35 435.44C235.23 435.5 236.82 436.75 238.21 436.21L237.44 434.67C238.73 434.64 240.02 434.69 241.3 434.67C241.56 434.67 241.82 434.68 242.07 434.67C243.61 434.61 245.17 434.76 246.71 434.67C250.57 434.45 255.21 433.74 259.08 433.12C259.59 433.1 260.11 433.13 260.63 433.12C261.97 433.08 263.88 432.64 265.27 432.35C265.74 432.25 266.38 432.46 266.82 432.35C267.58 432.15 268.03 432.17 268.77 431.63C271.72 429.53 274.05 415.18 274.54 411.08C275.81 400.4 275.65 389.47 273.01 379.01C272.95 378.51 273.03 377.97 273.01 377.46C272.89 373.73 269.9 366.43 268.37 362.77C268.1 362.13 267.79 361.67 267.6 361.22C266.15 355.7 263.42 350.24 259.87 345.76C258.04 342.53 256.38 338.87 253.15 336.61C236.6 339.65 219.21 340.02 202.7 336.48C200.38 346.47 193.18 355.22 184.36 360.29C180.56 362.47 176.21 363.29 172.95 365.88C171.53 370.34 169.69 374.73 168.57 379.28C165.38 392.23 164.99 401.57 167.35 414.71C167.9 417.78 169.58 428.17 172.32 429.06C186.74 431.94 201.17 433.54 215.82 434.64L215.8 434.66ZM180.02 339.76C175.86 340.72 174.19 347.21 173.32 350.87L174.52 352.7C177.45 353.52 186.02 345.45 187.91 342.96C186.88 339.34 183.21 339.03 180.02 339.76ZM156.84 345.93C151.92 347.04 149.08 355.55 154.38 356.57C156.3 356.94 164.95 356.57 166.01 355.1C168.85 351.13 162.79 344.6 156.85 345.94L156.84 345.93Z" fill="#153549"/>
<path d="M212.61 242.3C217.32 274.47 230 303.78 254.45 325.67C237.69 328.26 220.24 329.61 203.6 325.51C201.76 314.13 197.44 302.72 190.28 293.62C188.37 291.19 179.25 283.19 178.84 281.84C177.62 277.74 183.84 265.1 180.95 263.14C175.93 259.74 171.23 276.53 169.73 276.88C167.54 276.61 165.69 275.22 163.58 274.71C160.84 274.04 147.57 270.9 148.69 276.49C150.31 279.4 154.09 279.38 156.81 280.71C171.8 288.03 190.38 308.3 192.55 325.36C192.83 327.57 193.52 335.82 190.7 335.75C182.35 329.71 172.09 334.16 169.41 343.46C162.58 336.76 154.19 336.01 148.23 344.3L143.54 353.5C135.46 347.84 135.83 339.17 133.51 331.06C131.19 322.95 124.17 323.89 118.45 319.83C104.4 309.86 103.57 291.29 107.8 276.04C113.99 253.75 129.61 231.87 146.73 216.78C165.88 231.92 188.05 240.81 212.6 242.3H212.61Z" fill="#4F7C9C"/>
<path d="M195.2 217.19C189.88 212.14 189.21 198.49 192.46 192.19C194.29 188.64 197.67 187.28 200.36 190.78C202.17 193.14 208.23 212.02 208.05 214.72C207.61 221.17 199.18 220.96 195.21 217.19H195.2Z" fill="#F3E9DB"/>
<path d="M315.52 242.97C320.1 247.54 323.08 253.64 327.13 258.79C332.97 266.22 349.01 279.21 341.79 289.73C337.14 296.51 327.22 294.81 322.16 289.27C313.74 280.05 314.66 254.89 315.52 242.97Z" fill="#4F7C9C"/>
<path d="M255.23 225.96C254.55 221.62 257.33 219.24 260.38 216.82C271.07 208.34 294.65 204.12 303.83 216.42L302.69 218.19C292.47 216 281.87 215.78 271.82 218.98C269.22 219.81 256.05 226.78 255.23 225.96Z" fill="#143448"/>
<path d="M208.85 11.85L209.24 12.61L209.63 11.85C210.14 11.83 210.66 11.87 211.18 11.85C211.98 13.13 214.11 12.62 215.42 12.64C220.83 12.71 226.27 12.7 231.67 12.64C232.98 12.63 235.11 13.13 235.91 11.85C271.92 13.32 305.69 29.26 321.07 63.12C333.38 90.22 331.51 105.61 327.89 133.98C326.84 142.2 327 150.68 327.1 159.11C327.12 160.42 326.6 162.55 327.89 163.35C327.85 164.12 327.94 164.9 327.89 165.67H326.35C326.57 167.6 325.58 170.52 327.12 171.85C326.13 178.65 324.32 186.66 319.78 191.93C313.55 180.04 309.43 168.17 296.5 161.9C282.45 155.09 261.06 156.62 248.69 166.46C246.54 168.17 238.88 175.99 246 174.62C250.68 173.72 257.7 168.94 263.59 167.44C278.51 163.64 296.15 165.63 306.67 178.01C308.93 180.67 310.11 185.24 310.7 188.66C313.65 205.75 307.77 224.34 306.25 241.42C297.2 235.96 269.23 241.37 265.1 250.9C261.48 259.26 277.46 250.57 280.14 249.7C288.26 247.06 297.23 245.4 305.47 248.4C303.72 263.39 304.12 282.81 314 295.12C321.98 305.06 335.43 309.91 346.38 301.25C347.99 299.98 352.94 293.09 354.17 293.98C364.73 318.64 335.99 331.86 315.91 333.39C264.82 337.28 235.78 297.07 224.55 252.4C220.66 236.94 215.56 192.34 205.38 182.68C200.16 177.73 192.7 178.94 187.96 183.8C180.13 191.83 180.42 207.39 185 216.97C185.58 218.18 190.02 223.98 189.54 224.4C169.13 221.18 146.08 204.17 138.39 184.74C134.76 175.56 137.66 168.4 137.6 159.09C137.47 139.46 130.4 119.95 129.99 100.39C129.91 96.46 133.13 84.52 127.65 86.51C126.09 91.1 124.92 96.24 124.58 101.09C122.81 126.93 134.07 174.45 117.52 195.29C107.04 208.48 95.2301 197.19 87.1101 188.09C60.2501 157.99 31.2001 94.98 46.9401 55.14C63.9801 12 113.22 4.10001 150.87 25.43C146.9 32.52 142.7 40.12 143.14 48.57C143.14 49.25 144.72 49.08 145.05 48.94C145.9 48.58 152.77 36.15 155.11 33.49C168.35 18.46 189.48 12.91 208.84 11.86L208.85 11.85ZM295.21 65.36C288.79 66.67 286.13 75.01 293.47 75.09C296.52 75.12 298.53 73.98 302.42 74.8C309.11 76.2 311.95 82.21 317.4 84.54C323.56 82.57 317.99 74.32 315.15 71.33C310.24 66.16 302.17 63.93 295.2 65.35L295.21 65.36ZM210.94 68.5C208.72 65.81 200.17 65.64 196.88 65.97C184.01 67.26 175.83 80.23 175.62 92.24C180.26 92.89 181.45 87.75 184.1 84.88C192.73 75.5 196 76.63 207.62 75.16C211.64 74.65 213.82 71.98 210.94 68.5ZM302.18 110.21C292.73 112.68 293.39 135.77 305.8 133.95C316.6 132.36 315.36 106.77 302.18 110.21ZM195.97 113.37C186.02 123.42 198.42 144.28 207.64 133.93C216.86 123.58 206.63 102.61 195.97 113.37ZM290.78 135.52C292 130.85 285.9 128.04 282.27 126.64C270.58 122.15 253.92 123.59 243.12 129.98C239.74 131.98 234.01 135.88 234.36 140.16C235.67 141.45 248.46 135.03 251.19 134.2C258.91 131.85 268.35 130.81 276.39 131.74C281.42 132.33 285.8 135.61 290.77 135.52H290.78ZM255.23 225.96C256.04 226.78 269.22 219.81 271.82 218.98C281.86 215.78 292.46 216 302.69 218.19L303.83 216.42C294.66 204.13 271.08 208.34 260.38 216.82C257.33 219.24 254.55 221.62 255.23 225.96Z" fill="#4F7C9C"/>
<path d="M337.94 172.63C339.81 160.79 337.89 148.61 338.72 136.7C339.17 130.22 341.21 123.11 341.79 116.58C344.54 86.04 333.18 50.69 311.3 28.82C309.85 27.37 301.05 22.02 303.69 20.36C319.47 10.45 341.21 12.13 357.53 19.69C393.14 36.21 385.68 71.71 376.78 102.88C370.95 123.31 357.41 158.34 340.25 171.47C339.47 172.06 339.27 172.97 337.93 172.62L337.94 172.63Z" fill="#507D9C"/>
<path d="M327.88 163.35C326.6 162.55 327.11 160.42 327.09 159.11C326.99 150.68 326.83 142.2 327.88 133.98C327.55 143.73 328.32 153.61 327.88 163.35Z" fill="#5688AB"/>
<path d="M235.9 11.85C235.1 13.13 232.97 12.62 231.66 12.64C226.25 12.7 220.81 12.71 215.41 12.64C214.1 12.62 211.97 13.14 211.17 11.85C219.03 11.55 228.05 11.53 235.9 11.85Z" fill="#598CB1"/>
<path d="M327.88 165.67C327.75 167.72 327.4 169.82 327.11 171.85C325.57 170.52 326.56 167.6 326.34 165.66H327.88V165.67Z" fill="#5688AB"/>
<path d="M208.85 11.85C209.11 11.84 209.37 11.86 209.62 11.85L209.23 12.61L208.84 11.85H208.85Z" fill="#598CB1"/>
<path d="M290.78 135.52C285.81 135.61 281.43 132.33 276.4 131.74C268.35 130.8 258.92 131.85 251.2 134.2C248.46 135.03 235.67 141.45 234.37 140.16C234.02 135.88 239.75 131.98 243.13 129.98C253.94 123.6 270.59 122.15 282.28 126.64C285.92 128.04 292.02 130.85 290.79 135.52H290.78Z" fill="#143448"/>
<path d="M195.97 113.37C206.63 102.61 217.04 123.38 207.64 133.93C198.24 144.48 186.02 123.42 195.97 113.37Z" fill="#143449"/>
<path d="M210.94 68.5C213.81 71.99 211.64 74.66 207.62 75.16C196 76.62 192.73 75.49 184.1 84.88C181.45 87.76 180.25 92.89 175.62 92.24C175.83 80.22 184.01 67.26 196.88 65.97C200.17 65.64 208.72 65.81 210.94 68.5Z" fill="#133448"/>
<path d="M302.18 110.21C315.36 106.77 316.6 132.36 305.8 133.95C293.39 135.77 292.74 112.68 302.18 110.21Z" fill="#133348"/>
<path d="M295.21 65.36C302.18 63.94 310.25 66.16 315.16 71.34C317.99 74.32 323.56 82.58 317.41 84.55C311.95 82.21 309.12 76.21 302.43 74.81C298.54 73.99 296.53 75.13 293.48 75.1C286.14 75.02 288.8 66.68 295.22 65.37L295.21 65.36Z" fill="#133347"/>
<path d="M259.86 345.77C262.6 350.6 265.37 356.15 267.59 361.23C267.79 361.68 268.1 362.14 268.36 362.78L271.23 375.02L272.99 377.47C273.01 377.98 272.93 378.51 272.99 379.02C274.21 389.9 274.41 403.44 272.78 414.75C272.3 418.06 270.5 427.72 269.16 430.31C268.6 431.39 266.21 429.96 266.81 432.36C266.38 432.47 265.74 432.26 265.26 432.36C264.41 430.99 262.08 431.7 260.62 431.59V433.13C260.11 433.14 259.59 433.11 259.08 433.13C256.28 433.24 253.47 432.62 249.42 433.17C247.98 433.36 246.28 432.18 246.71 434.68C245.17 434.77 243.61 434.62 242.07 434.68C241.99 434.31 241.66 433.96 241.3 433.91C235.75 433.1 226.08 433.83 220.03 433.9C218.72 433.91 216.59 433.41 215.79 434.69C201.14 433.58 186.71 431.98 172.29 429.11C169.54 428.21 167.87 417.83 167.32 414.76C164.96 401.62 165.35 392.28 168.54 379.33C169.66 374.78 171.5 370.39 172.92 365.93C176.18 363.33 180.53 362.52 184.33 360.34C193.15 355.27 200.36 346.52 202.67 336.53C219.18 340.06 236.57 339.7 253.12 336.66C256.35 338.92 258.01 342.58 259.84 345.81L259.86 345.77Z" fill="#F7EADB"/>
<path d="M266.82 432.34C266.22 429.94 268.61 431.37 269.17 430.29C270.51 427.7 272.31 418.04 272.79 414.73C274.42 403.42 274.22 389.88 273 379C275.64 389.46 275.8 400.39 274.53 411.07C274.04 415.17 271.71 429.52 268.76 431.62C268.01 432.15 267.57 432.14 266.81 432.34H266.82Z" fill="#EFEFE9"/>
<path d="M241.31 433.89V434.66C240.02 434.68 238.73 434.63 237.45 434.66C236.43 434.69 234.89 434.27 234.36 435.43C234.1 435.41 233.84 435.44 233.59 435.43C228.4 435.16 223.26 435.01 218.13 434.66C217.36 434.61 216.58 434.72 215.81 434.66C216.61 433.38 218.74 433.89 220.05 433.87C226.1 433.81 235.76 433.08 241.32 433.88L241.31 433.89Z" fill="#FEFCF2"/>
<path d="M259.09 433.12C255.23 433.74 250.59 434.44 246.72 434.67C246.29 432.17 247.99 433.35 249.43 433.16C253.48 432.62 256.29 433.23 259.09 433.12Z" fill="#EFEFE9"/>
<path d="M273 377.46L271.24 375.01L268.37 362.77C269.9 366.43 272.89 373.72 273.01 377.46H273Z" fill="#EFEFE9"/>
<path d="M265.27 432.34C263.88 432.63 261.97 433.08 260.63 433.11V431.57C262.08 431.68 264.42 430.97 265.27 432.34Z" fill="#EFEFE9"/>
<path d="M267.59 361.23C265.37 356.15 262.6 350.6 259.86 345.77C263.41 350.25 266.14 355.71 267.59 361.23Z" fill="#EFEFE9"/>
<path d="M242.08 434.66C241.82 434.67 241.56 434.66 241.31 434.66V433.89C241.67 433.94 242 434.29 242.08 434.66Z" fill="#EFEFE9"/>
</g>
<defs>
<clipPath id="clip0_9_42">
<rect width="449.22" height="446.09" fill="white"/>
</clipPath>
</defs>
</svg>
